<svg width="13" height="13" viewBox="0 0 13 13" fill="none" xmlns="http://www.w3.org/2000/svg">
<path d="M11.6383 9.82559H10.5974C10.5263 9.82559 10.4597 9.85733 10.4152 9.91326C10.3116 10.0417 10.2005 10.1657 10.0836 10.2836C9.60517 10.7725 9.03849 11.1622 8.41487 11.4309C7.7688 11.7095 7.07439 11.8524 6.37306 11.8512C5.66382 11.8512 4.9768 11.7091 4.33124 11.4309C3.70762 11.1622 3.14094 10.7725 2.66254 10.2836C2.18328 9.79635 1.80113 9.21883 1.53725 8.58303C1.26333 7.92396 1.12562 7.22408 1.12562 6.50001C1.12562 5.77594 1.26481 5.07606 1.53725 4.41699C1.8008 3.7806 2.17985 3.20769 2.66254 2.71641C3.14523 2.22514 3.7064 1.83816 4.33124 1.56909C4.9768 1.29095 5.66382 1.14886 6.37306 1.14886C7.08229 1.14886 7.76931 1.28944 8.41487 1.56909C9.03971 1.83816 9.60088 2.22514 10.0836 2.71641C10.2005 2.83583 10.3101 2.95979 10.4152 3.08676C10.4597 3.14269 10.5278 3.17444 10.5974 3.17444H11.6383C11.7315 3.17444 11.7893 3.06862 11.7375 2.98851C10.6018 1.18665 8.61476 -0.00602362 6.35677 2.2884e-05C2.80913 0.00909264 -0.0352063 2.9492 0.000329378 6.56652C0.035865 10.1264 2.87576 13 6.37306 13C8.62513 13 10.6033 11.8088 11.7375 10.0115C11.7878 9.9314 11.7315 9.82559 11.6383 9.82559ZM12.9546 6.40478L10.8535 4.71176C10.775 4.64827 10.661 4.70571 10.661 4.80699V5.95583H6.01178C5.94663 5.95583 5.89332 6.01024 5.89332 6.07676V6.92327C5.89332 6.98978 5.94663 7.0442 6.01178 7.0442H10.661V8.19303C10.661 8.29431 10.7765 8.35175 10.8535 8.28826L12.9546 6.59524C12.9687 6.58393 12.9802 6.56948 12.988 6.55298C12.9959 6.53648 13 6.51837 13 6.50001C13 6.48166 12.9959 6.46354 12.988 6.44704C12.9802 6.43054 12.9687 6.41609 12.9546 6.40478Z" fill="#D8453C"/>
</svg>
