<svg width="124" height="67" viewBox="0 0 124 67" fill="none" xmlns="http://www.w3.org/2000/svg">
<path d="M1 32.7337L67.4292 1L13.6935 40.7729M13.6935 40.7729V66.1598L7.34674 29.7719M13.6935 40.7729V32.3106M13.6935 40.7729L26.8101 63.6211" stroke="#14509F" stroke-width="2"/>
<path d="M37.3455 44.9633V48.7358C37.3455 48.9024 37.3886 49.0329 37.4748 49.1272C37.5671 49.2161 37.721 49.2855 37.9365 49.3354V49.6019H34.0029V49.3354C34.2245 49.2799 34.3784 49.2077 34.4646 49.1189C34.5508 49.0301 34.5939 48.9024 34.5939 48.7358V39.1088C34.5939 38.9367 34.5508 38.8062 34.4646 38.7174C34.3784 38.6286 34.2245 38.5564 34.0029 38.5009V38.2344H41.8884C42.8487 38.2344 43.609 38.2843 44.1692 38.3843C44.7355 38.4842 45.2279 38.6591 45.6465 38.9089C46.1328 39.1976 46.496 39.589 46.7361 40.0832C46.9639 40.5606 47.0777 41.0714 47.0777 41.6155C47.0777 43.4698 45.9359 44.5552 43.6521 44.8717L46.099 48.0113C46.5299 48.5609 46.8438 48.9163 47.0408 49.0773C47.244 49.2327 47.4902 49.3188 47.7795 49.3354V49.6019H43.2181V49.3354C43.532 49.291 43.689 49.1911 43.689 49.0356C43.689 48.9357 43.5443 48.6942 43.255 48.3111L40.7065 44.9633H37.3455ZM37.3455 43.0895H41.593C42.2209 43.0895 42.6641 43.0729 42.9226 43.0396C43.1812 43.0062 43.4182 42.9369 43.6336 42.8314C44.1014 42.6037 44.3354 42.1929 44.3354 41.5988C44.3354 41.0048 44.1014 40.5939 43.6336 40.3663C43.412 40.2553 43.175 40.1859 42.9226 40.1581C42.6764 40.1248 42.2332 40.1081 41.593 40.1081H37.3455V43.0895Z" fill="white"/>
<path d="M53.1585 45.1124V47.9155H60.4549C60.6211 47.9155 60.7486 47.8805 60.8372 47.8106C60.9259 47.7406 60.9979 47.6157 61.0533 47.4358H61.3192V50.0816H61.0533C60.9979 49.9017 60.9259 49.7768 60.8372 49.7069C60.7486 49.6369 60.6211 49.6019 60.4549 49.6019H50.1502V49.3621C50.3497 49.3121 50.4882 49.2472 50.5657 49.1672C50.6433 49.0873 50.6821 48.9698 50.6821 48.8149V40.1581C50.6821 40.0032 50.6433 39.8858 50.5657 39.8058C50.4882 39.7259 50.3497 39.6609 50.1502 39.611V39.3711H60.2555C60.4217 39.3711 60.5491 39.3361 60.6378 39.2662C60.7264 39.1912 60.7984 39.0638 60.8538 38.8839H61.1198V41.5297H60.8538C60.7984 41.3548 60.7264 41.2324 60.6378 41.1624C60.5491 41.0925 60.4217 41.0575 60.2555 41.0575H53.1585V43.4859H57.7624C57.9286 43.4859 58.056 43.4509 58.1447 43.381C58.2333 43.311 58.3053 43.1861 58.3608 43.0062H58.6267V45.592H58.3608C58.3053 45.4172 58.2333 45.2947 58.1447 45.2248C58.056 45.1498 57.9286 45.1124 57.7624 45.1124H53.1585Z" fill="white"/>
<path d="M74.0585 40.0457L72.704 42.4516L72.4713 42.3317C72.4768 42.2817 72.4796 42.2417 72.4796 42.2118C72.4796 42.0419 72.3189 41.8595 71.9976 41.6646C71.0114 41.045 69.8535 40.7352 68.5239 40.7352C67.9366 40.7352 67.4186 40.8002 66.9699 40.9301C66.643 41.03 66.3771 41.1799 66.1721 41.3798C65.9727 41.5797 65.8729 41.797 65.8729 42.0319C65.8729 42.4166 66.1305 42.679 66.6458 42.8189C66.9117 42.8888 67.4824 42.9638 68.3577 43.0437L69.6624 43.1636C70.438 43.2386 71.0641 43.341 71.5405 43.4709C72.0225 43.6009 72.4491 43.7832 72.8203 44.0181C73.197 44.2629 73.4934 44.5852 73.7095 44.9849C73.9311 45.3847 74.0419 45.8119 74.0419 46.2666C74.0419 46.9861 73.7843 47.6257 73.2691 48.1853C72.8037 48.695 72.0807 49.0723 71.1001 49.3171C70.3688 49.502 69.5849 49.5944 68.7483 49.5944C67.2469 49.5944 65.7649 49.2696 64.3023 48.6201C63.992 48.4901 63.8064 48.4252 63.7455 48.4252C63.6735 48.4252 63.5599 48.4802 63.4048 48.5901L63.1638 48.4777L64.3937 45.9668L64.6347 46.0717C64.6347 46.1167 64.6347 46.1492 64.6347 46.1692C64.6347 46.394 64.7538 46.6014 64.992 46.7913C65.3522 47.0811 65.9089 47.3309 66.6624 47.5408C67.4159 47.7506 68.1306 47.8556 68.8065 47.8556C69.5433 47.8556 70.1721 47.7431 70.6929 47.5183C70.981 47.3934 71.2109 47.2285 71.3826 47.0236C71.5544 46.8137 71.6403 46.5964 71.6403 46.3715C71.6403 46.0318 71.438 45.7894 71.0336 45.6445C70.7511 45.5446 70.1804 45.4521 69.3217 45.3672L68.0419 45.2473C67.1832 45.1673 66.5765 45.0924 66.222 45.0224C65.8674 44.9475 65.5128 44.83 65.1582 44.6701C64.6541 44.4453 64.258 44.108 63.9699 43.6583C63.7095 43.2536 63.5793 42.7889 63.5793 42.2642C63.5793 41.3998 63.9089 40.6853 64.5682 40.1206C65.4325 39.3761 66.7289 39.0039 68.4574 39.0039C69.1832 39.0039 69.8591 39.0713 70.4851 39.2062C71.1112 39.3361 71.8923 39.5785 72.8286 39.9333C73.15 40.0482 73.3466 40.1056 73.4187 40.1056C73.535 40.1056 73.6707 40.0482 73.8259 39.9333L74.0585 40.0457Z" fill="white"/>
<path d="M85.8134 45.0299H79.2732V48.7175C79.2732 48.8674 79.312 48.9848 79.3896 49.0698C79.4727 49.1497 79.6112 49.2122 79.8051 49.2571V49.497H76.2649V49.2571C76.4644 49.2072 76.6029 49.1422 76.6804 49.0623C76.758 48.9823 76.7968 48.8674 76.7968 48.7175V40.0457C76.7968 39.8958 76.758 39.7809 76.6804 39.7009C76.6029 39.621 76.4644 39.556 76.2649 39.506V39.2662H79.8051V39.506C79.6056 39.551 79.4671 39.616 79.3896 39.7009C79.312 39.7809 79.2732 39.8958 79.2732 40.0457V43.3435H85.8134V40.0457C85.8134 39.8958 85.7746 39.7809 85.6971 39.7009C85.6195 39.616 85.481 39.551 85.2816 39.506V39.2662H88.8217V39.506C88.6223 39.556 88.4838 39.621 88.4062 39.7009C88.3286 39.7809 88.2899 39.8958 88.2899 40.0457V48.7175C88.2899 48.8674 88.3286 48.9823 88.4062 49.0623C88.4838 49.1422 88.6223 49.2072 88.8217 49.2571V49.497H85.2816V49.2571C85.4755 49.2122 85.6112 49.1497 85.6888 49.0698C85.7719 48.9848 85.8134 48.8674 85.8134 48.7175V45.0299Z" fill="white"/>
<path d="M92.1601 48.71V40.0457C92.1601 39.8958 92.1214 39.7809 92.0438 39.7009C91.9662 39.621 91.8277 39.556 91.6283 39.506V39.2662H95.1685V39.506C94.969 39.551 94.8305 39.616 94.7529 39.7009C94.6754 39.7809 94.6366 39.8958 94.6366 40.0457V48.71C94.6366 48.8649 94.6754 48.9848 94.7529 49.0698C94.836 49.1497 94.9746 49.2122 95.1685 49.2571V49.497H91.6283V49.2571C91.8277 49.2072 91.9662 49.1422 92.0438 49.0623C92.1214 48.9823 92.1601 48.8649 92.1601 48.71Z" fill="white"/>
<path d="M104.85 40.9526V48.71C104.85 48.8649 104.889 48.9823 104.966 49.0623C105.044 49.1422 105.182 49.2072 105.382 49.2571V49.497H101.841V49.2571C102.041 49.2072 102.179 49.1422 102.257 49.0623C102.335 48.9823 102.373 48.8649 102.373 48.71V40.9526H98.8497C98.6835 40.9526 98.5561 40.9876 98.4675 41.0575C98.3788 41.1225 98.3068 41.2449 98.2514 41.4248H97.9855V38.779H98.2514C98.3123 38.9639 98.3843 39.0913 98.4675 39.1613C98.5561 39.2312 98.6835 39.2662 98.8497 39.2662H108.365C108.537 39.2662 108.667 39.2312 108.756 39.1613C108.844 39.0913 108.916 38.9639 108.972 38.779H109.238V41.4248H108.972C108.916 41.2449 108.844 41.1225 108.756 41.0575C108.667 40.9876 108.537 40.9526 108.365 40.9526H104.85Z" fill="white"/>
<path d="M119.429 46.8887H114.277L113.512 48.3278C113.407 48.5276 113.354 48.685 113.354 48.7999C113.354 49.0198 113.54 49.1722 113.911 49.2571V49.497H110.155V49.2571C110.377 49.2172 110.546 49.1472 110.662 49.0473C110.778 48.9474 110.911 48.7525 111.061 48.4627L115.233 40.6003C115.366 40.3505 115.432 40.1506 115.432 40.0007C115.432 39.7709 115.271 39.606 114.95 39.506V39.2662H118.972V39.506C118.645 39.591 118.482 39.7384 118.482 39.9482C118.482 40.0932 118.535 40.258 118.64 40.4429L122.961 48.3278C123.144 48.6625 123.305 48.8924 123.443 49.0173C123.582 49.1372 123.767 49.2172 124 49.2571V49.497H119.828V49.2571C120.194 49.2022 120.377 49.0473 120.377 48.7925C120.377 48.6875 120.321 48.5326 120.21 48.3278L119.429 46.8887ZM118.715 45.4871L116.878 41.8445L115.017 45.4871H118.715Z" fill="white"/>
</svg>
